<svg width="4241" height="3636" viewBox="0 0 4241 3636" fill="none" xmlns="http://www.w3.org/2000/svg">
<g clip-path="url(#clip0_93:2)" filter="url(#filter0_d_93:2)">
<path d="M1932.6 821.344C1791.1 308.691 1154.36 143.318 788.672 526.431C783.159 531.943 778.565 537.455 773.052 542.968C249.325 1111.66 496.487 2513.65 1588.96 2869.2C2681.44 3224.75 3818.02 2575.21 3881.42 1995.49C3944.82 1415.77 3441.3 1232.94 2659.39 1395.55C2217.44 1487.43 2020.81 1140.15 1932.6 821.344Z" fill="#DCDCDC"/>
<path d="M3035.18 938.945C2889.09 962.832 2848.66 1092.37 2961.68 1184.25C2999.35 1214.56 3052.64 1240.29 3127.99 1252.23C3417.41 1300.01 3570.86 1172.3 3454.17 1006.93C3382.5 904.951 3179.44 915.976 3035.18 938.945Z" fill="#DCDCDC"/>
<path d="M377.959 1804.39C286.996 1687.71 153.767 1714.35 127.122 1856.76C117.933 1903.61 121.609 1963.33 147.336 2035.91C243.812 2312.45 429.413 2385.95 519.457 2204.96C575.505 2092.87 468.004 1920.15 377.959 1804.39Z" fill="#DCDCDC"/>
<path d="M2369.04 680.774L2384.66 603.6L2312.07 589.819C2312.07 570.526 2308.4 551.232 2302.89 532.858L2362.61 492.433L2318.51 427.203L2261.54 465.79C2244.08 448.334 2224.79 435.472 2202.73 426.284L2217.44 353.704L2140.25 338.086L2125.55 412.503C2109.93 413.422 2094.31 416.178 2078.69 421.691L2038.27 361.973L1973.03 406.072L2011.62 463.034C1994.16 480.49 1981.3 499.783 1972.11 521.833L1908.71 508.971L1893.09 586.144L1958.33 599.006C1959.25 619.219 1963.84 639.431 1972.11 658.724L1915.14 697.311L1959.25 762.541L2018.97 722.117C2036.43 736.817 2055.72 747.841 2076.86 755.191L2062.15 827.771L2139.34 843.39L2154.96 764.379C2172.41 762.541 2188.95 757.947 2205.49 751.516L2244.08 808.478L2309.32 764.379L2268.89 704.661C2279.91 692.717 2288.18 678.936 2295.53 664.237L2369.04 680.774ZM2175.17 649.537C2142.09 671.586 2097.07 663.318 2075.02 630.243C2052.97 597.169 2061.24 552.151 2094.31 530.101C2127.39 508.052 2172.41 516.32 2194.46 549.395C2216.52 582.469 2208.25 627.487 2175.17 649.537Z" fill="#DCDCDC"/>
<path d="M1931.68 325.23L1939.95 282.968L1900.44 275.618C1900.44 265.512 1898.61 254.487 1894.93 244.381L1928.01 222.331L1904.12 186.501L1872.88 207.632C1863.69 198.444 1852.66 191.094 1840.72 186.501L1848.07 146.995L1805.8 138.727L1797.54 179.151C1789.27 180.07 1780.08 180.988 1771.81 183.745L1749.76 150.67L1713.92 174.557L1735.06 205.794C1725.87 214.981 1718.52 226.006 1713.92 237.95L1679.01 231.519L1670.74 273.78L1706.57 281.13C1707.49 292.155 1709.33 303.18 1713.92 314.205L1682.68 335.336L1706.57 371.166L1739.65 349.117C1748.84 357.385 1759.86 363.816 1770.89 367.491L1762.62 406.997L1804.89 415.266L1813.16 372.085C1822.34 371.166 1831.53 368.41 1840.72 364.735L1861.85 395.972L1897.69 372.085L1875.63 339.011C1881.15 332.579 1886.66 325.23 1890.34 316.961L1931.68 325.23ZM1826.02 307.774C1807.64 319.717 1783.75 315.124 1770.89 296.749C1758.94 278.374 1763.54 254.487 1781.92 241.625C1800.29 229.681 1824.18 234.275 1837.04 252.65C1848.07 271.024 1843.48 295.83 1826.02 307.774Z" fill="#DCDCDC"/>
<path d="M4059.67 541.132L4067.94 498.87L4028.43 491.52C4028.43 481.414 4026.59 470.389 4022.91 460.283L4055.99 438.234L4032.1 402.403L4000.86 423.534C3991.68 414.347 3980.65 406.997 3968.7 402.403L3976.06 362.898L3933.79 354.629L3925.52 395.053C3917.25 395.972 3908.06 396.891 3899.79 399.647L3877.74 366.572L3841.91 390.46L3863.04 422.615C3853.85 431.803 3846.5 442.827 3841.91 454.771L3806.99 448.34L3798.72 490.602L3834.56 497.951C3835.48 508.976 3837.31 520.001 3841.91 531.026L3810.67 552.157L3834.56 587.987L3867.63 565.938C3876.82 574.206 3887.85 580.637 3898.87 584.312L3890.61 623.818L3932.87 632.087L3941.14 588.906C3950.33 587.987 3959.52 585.231 3968.7 581.556L3989.84 612.793L4025.67 588.906L4003.62 555.832C4009.13 549.401 4014.65 542.051 4018.32 533.782L4059.67 541.132ZM3953.08 523.676C3934.71 535.62 3910.82 531.026 3897.96 512.651C3886.01 494.276 3890.61 470.389 3908.98 457.527C3927.36 445.584 3951.25 450.177 3964.11 468.552C3976.06 486.927 3971.46 511.732 3953.08 523.676Z" fill="#DCDCDC"/>
<path d="M442.276 1066.64L450.546 1024.38L411.037 1017.03C411.037 1006.93 409.199 995.902 405.524 985.796L438.601 963.746L414.712 927.916L383.472 949.046C374.284 939.859 363.258 932.509 351.313 927.916L358.664 888.41L316.398 879.223L308.129 919.647C299.859 920.566 290.671 921.484 282.402 924.241L261.269 893.004L225.435 916.891L246.568 948.128C237.38 957.315 230.029 968.34 225.435 980.283L190.52 973.852L182.251 1016.11L218.085 1023.46C219.003 1034.49 220.841 1045.51 225.435 1056.54L194.195 1077.67L218.085 1113.5L251.162 1091.45C260.35 1099.72 271.376 1106.15 282.402 1109.82L274.133 1149.33L316.398 1157.6L324.668 1114.42C333.856 1113.5 343.044 1110.74 352.232 1107.07L373.365 1138.31L409.199 1114.42L387.147 1081.34C392.66 1074.91 398.173 1067.56 401.848 1059.29L442.276 1066.64ZM335.693 1050.11C317.317 1062.05 293.428 1057.46 280.564 1039.08C268.62 1020.71 273.214 996.821 291.59 983.958C309.966 972.015 333.856 976.609 346.719 994.983C358.664 1013.36 354.07 1037.24 335.693 1050.11Z" fill="#DCDCDC"/>
<path d="M2098.91 3170.55C1397.85 3170.55 784.996 3140.24 452.383 3094.3C417.468 3089.71 406.442 3140.24 440.439 3149.42C667.387 3213.74 988.974 3218.33 1193.87 3240.38C1547.62 3278.05 2062.15 3267.94 2097.99 3391.05C2133.82 3514.16 2137.5 3644.62 1777.32 3626.25C1385.9 3606.03 1451.14 3391.05 1451.14 3391.05C1088.21 3402.08 224.516 3317.55 128.959 3170.55C34.3207 3025.39 207.978 2991.4 211.653 2991.4C357.745 2917.9 1147.01 2860.94 2097.99 2860.94C3153.71 2860.94 4009.13 2929.85 4009.13 3016.21C4009.13 3101.65 3153.71 3170.55 2098.91 3170.55Z" fill="#DCDCDC"/>
<path d="M788.672 2721.29C704.14 2636.77 520.376 2437.4 404.605 2212.31C238.299 1888 71.9927 1917.4 38.9152 2032.24C-45.6161 2328.07 452.384 2650.55 659.118 2769.06L788.672 2721.29Z" fill="#898989"/>
<path d="M743.65 2738.75C598.476 2630.34 476.273 2501.72 392.661 2404.33C281.484 2274.79 214.41 2171.89 213.491 2170.97C210.734 2167.3 206.14 2166.38 202.465 2168.22C198.79 2170.97 197.871 2175.57 199.709 2179.24C200.627 2180.16 267.701 2283.98 379.797 2414.44C462.491 2509.99 582.856 2636.77 725.273 2745.18L743.65 2738.75Z" fill="#5B5B5B"/>
<path d="M768.457 2607.36C729.867 2529.27 655.443 2366.65 627.878 2200.36C586.531 1952.3 471.679 1935.77 425.738 2004.67C299.86 2192.09 601.232 2538.46 696.789 2640.44L768.457 2607.36Z" fill="#5B5B5B"/>
<path d="M740.893 2620.23C667.387 2517.33 614.096 2406.16 579.18 2324.39C533.239 2215.06 511.188 2133.3 510.269 2133.3C509.35 2130.54 506.594 2128.7 503.837 2129.62C501.081 2130.54 499.243 2133.3 500.162 2136.05C500.162 2136.97 523.132 2219.66 569.073 2328.99C603.989 2410.75 657.28 2522.84 730.786 2625.74L740.893 2620.23Z" fill="#282828"/>
<path d="M3526.75 1462.62C3603.93 1371.67 3773 1159.44 3871.31 926.083C4012.81 590.745 4180.95 607.282 4222.3 718.449C4328.88 1006.93 3856.61 1365.24 3659.06 1499.37L3526.75 1462.62Z" fill="#898989"/>
<path d="M3572.69 1475.49C3709.6 1356.06 3821.69 1218.25 3897.96 1115.35C3999.03 977.539 4058.75 870.047 4058.75 869.128C4060.59 865.453 4066.1 863.616 4069.78 866.372C4073.45 868.209 4075.29 873.722 4072.53 877.397C4071.61 878.316 4011.89 986.726 3910.82 1125.45C3836.4 1227.43 3725.22 1362.49 3591.07 1481.01L3572.69 1475.49Z" fill="#5B5B5B"/>
<path d="M3538.7 1347.78C3571.77 1266.93 3633.34 1099.72 3648.04 931.591C3670.09 680.777 3784.02 655.971 3835.48 721.201C3974.22 899.435 3700.41 1266.01 3613.12 1375.34L3538.7 1347.78Z" fill="#5B5B5B"/>
<path d="M3566.26 1357.89C3631.5 1250.4 3677.44 1134.64 3705 1050.11C3742.67 938.027 3759.21 854.422 3759.21 854.422C3760.13 851.666 3762.89 849.828 3765.65 849.828C3768.4 850.747 3770.24 853.503 3770.24 856.259C3770.24 857.178 3753.7 940.783 3716.03 1053.79C3687.55 1138.31 3642.52 1253.15 3577.29 1361.56L3566.26 1357.89Z" fill="#282828"/>
<path d="M1170.9 512.65C1185.6 377.596 1173.66 246.217 1106.58 278.373C1039.51 310.529 1062.48 535.618 1154.36 683.535L1173.66 741.415C1108.42 632.086 978.867 539.293 925.575 574.205C872.284 608.198 964.166 662.404 1056.97 697.316C1126.8 723.959 1167.22 757.952 1185.6 776.327L1275.65 1050.11C1172.74 877.388 967.841 731.309 883.31 786.433C799.697 840.638 944.871 926.081 1090.96 982.123C1201.22 1024.39 1264.62 1076.75 1294.02 1107.07L1312.4 1161.28C1322.51 1159.44 1332.61 1157.6 1341.8 1155.76L1235.22 832.37C1242.57 804.808 1256.35 766.221 1284.83 722.122C1338.13 639.435 1379.47 541.131 1316.99 544.806C1262.78 548.481 1218.68 661.485 1215.92 773.571L1179.17 661.485C1172.74 623.817 1164.47 571.449 1170.9 512.65Z" fill="#5B5B5B"/>
<path d="M3980.65 2120.43C4017.4 1989.05 4076.21 1871.45 4126.74 1926.58C4177.28 1981.7 4072.53 2181.99 3932.87 2285.8L3893.36 2332.66C3994.43 2255.49 4148.79 2216.9 4185.55 2268.35C4222.3 2319.8 4116.63 2336.33 4018.32 2334.5C3942.98 2333.58 3894.28 2350.11 3869.47 2361.14L3684.79 2581.64C3844.66 2459.44 4089.07 2399.73 4146.96 2481.49C4204.84 2563.26 4037.62 2588.99 3881.42 2586.23C3762.89 2584.39 3684.79 2610.12 3646.2 2627.57L3609.45 2671.67C3601.18 2666.16 3591.99 2661.57 3583.72 2656.05L3804.24 2393.3C3807.91 2364.81 3808.83 2323.47 3798.72 2272.02C3780.35 2175.56 3777.59 2068.98 3834.56 2095.63C3884.17 2118.59 3883.25 2239.87 3844.66 2345.52L3920.93 2254.57C3937.46 2222.41 3964.11 2177.39 3980.65 2120.43Z" fill="#898989"/>
<path d="M914.55 1914.64H1066.15C984.38 1900.86 782.24 1814.5 763.863 1639.94C740.893 1419.44 661.875 1422.2 529.565 1398.31C397.255 1375.34 360.502 1413.01 275.97 1241.21C191.439 1069.4 4 1048.27 4 1048.27C4 1048.27 174.9 1234.78 142.742 1377.18C109.664 1518.67 223.598 1575.63 314.561 1594C405.524 1611.46 383.472 1733.65 418.387 1812.66C434.007 1848.49 498.325 1885.24 564.48 1915.56H914.55V1914.64Z" fill="#5B5B5B"/>
<path d="M586.532 1697.82C592.963 1763.97 631.554 1842.98 688.521 1908.21C690.358 1910.96 692.196 1912.8 694.952 1915.56H712.41C707.816 1910.04 703.222 1905.45 698.628 1899.94C644.417 1837.46 605.827 1759.37 600.314 1696.9C590.207 1596.76 513.026 1528.77 350.395 1476.4C255.757 1446.08 225.436 1330.32 225.436 1329.4C224.517 1325.73 220.842 1323.89 218.085 1324.81C214.41 1325.73 212.572 1329.4 213.491 1332.16C214.41 1336.75 245.65 1455.27 346.72 1488.34C502.919 1538.88 577.343 1603.19 586.532 1697.82Z" fill="#282828"/>
<path d="M836.45 1914.65H1154.36V1913.73C1163.55 1881.57 1168.14 1849.42 1169.06 1816.34C1172.74 1705.17 1174.58 1425.88 1102.91 1354.22C1012.86 1264.18 830.937 1229.27 854.827 1093.3C878.716 957.324 861.258 769.903 646.255 739.584C431.251 709.266 264.026 371.172 264.026 371.172C264.026 371.172 193.277 643.117 386.229 851.67C579.181 1060.22 507.513 1090.54 468.004 1287.15C428.494 1483.76 383.472 1591.25 677.495 1741C759.269 1782.35 807.967 1845.74 836.45 1914.65Z" fill="#898989"/>
<path d="M672.901 1079.52C659.118 1334.01 711.491 1477.33 844.72 1545.32C928.332 1587.58 1016.54 1682.21 1074.42 1791.54C1092.8 1826.45 1111.18 1867.79 1125.88 1915.57H1145.17C1130.47 1864.12 1110.26 1819.1 1090.96 1782.35C1030.32 1667.51 941.196 1572.88 852.989 1528.78C727.111 1465.39 677.495 1327.58 691.277 1081.36C700.465 923.334 551.616 817.679 546.104 813.086C541.509 810.329 535.997 811.248 533.24 815.842C530.484 820.435 531.402 825.948 535.078 828.704C536.915 827.785 681.17 931.602 672.901 1079.52Z" fill="#5B5B5B"/>
<path d="M2690.63 1411.18H2845.91L3003.03 1309.2C3041.62 1248.57 3075.61 1182.42 3069.18 1143.83C3055.4 1059.31 2969.95 969.271 3037.02 904.041C3103.18 839.73 3167.49 730.4 3062.75 629.339C2958 528.279 2999.35 278.383 2999.35 278.383C2999.35 278.383 2853.26 398.737 2876.23 587.996C2899.2 777.256 2847.74 766.231 2749.43 858.104C2651.12 949.978 2583.13 990.402 2685.11 1187.93C2723.7 1261.43 2715.44 1341.36 2690.63 1411.18Z" fill="#5B5B5B"/>
<path d="M2864.28 1139.24C2894.6 1198.04 2905.63 1285.32 2893.69 1370.76C2893.69 1373.52 2892.77 1377.19 2891.85 1379.95L2877.15 1389.13C2878.07 1381.78 2879.9 1375.35 2880.82 1368.92C2892.77 1286.24 2881.74 1200.79 2852.34 1144.75C2806.4 1055.63 2833.96 956.411 2941.46 823.194C3003.94 746.02 2966.27 633.016 2965.35 632.097C2964.43 628.423 2966.27 625.666 2969.03 623.829C2972.7 622.91 2976.38 624.748 2977.3 627.504C2979.14 632.097 3017.73 747.858 2950.65 831.463C2847.74 960.086 2821.1 1055.63 2864.28 1139.24Z" fill="#282828"/>
<path d="M3274.08 1411.18C3292.45 1396.48 3312.67 1382.69 3335.64 1370.75C3629.66 1221 3583.72 1112.59 3545.13 916.897C3506.54 720.288 3433.95 689.969 3626.9 481.417C3820.77 271.945 3750.03 0 3750.03 0C3750.03 0 3582.8 337.175 3367.8 368.412C3152.79 398.731 3135.34 587.071 3159.22 722.125C3183.11 858.098 3002.11 893.01 2911.14 983.045C2845.91 1048.28 2841.31 1285.31 2844.07 1411.18H3274.08Z" fill="#898989"/>
<path d="M2945.14 1411.17C3003.03 1305.52 3088.48 1214.56 3170.25 1173.22C3303.48 1106.15 3356.77 962.828 3342.07 707.42C3333.8 559.503 3478.05 456.605 3479.89 455.686C3484.49 452.93 3485.41 446.499 3481.73 442.824C3478.97 438.23 3472.54 437.312 3468.87 440.068C3462.43 444.662 3314.5 550.316 3323.69 708.338C3337.48 954.559 3287.86 1092.37 3161.98 1155.76C3073.77 1200.78 2984.65 1295.41 2924.01 1409.33C2924.01 1409.33 2924.01 1409.33 2924.01 1410.25H2945.14V1411.17Z" fill="#5B5B5B"/>
<path d="M3658.14 1038.17V2700.16C3658.14 2769.06 3603.01 2824.19 3534.1 2824.19H701.383C632.472 2824.19 577.343 2769.06 577.343 2700.16V1038.17C577.343 969.265 632.472 914.141 701.383 914.141H3534.1C3602.1 914.141 3658.14 970.183 3658.14 1038.17Z" fill="#282828"/>
<path d="M3521.24 1122.69V2615.64C3521.24 2659.74 3485.41 2695.57 3441.3 2695.57H793.265C774.889 2695.57 757.431 2689.14 743.649 2678.11C739.974 2675.35 736.299 2672.6 733.542 2668.92C720.679 2655.14 713.328 2635.85 713.328 2615.64V1122.69C713.328 1078.59 749.162 1042.76 793.265 1042.76H3441.3C3456 1042.76 3469.79 1046.44 3481.73 1053.79C3492.76 1060.22 3501.94 1069.41 3509.29 1080.43C3516.65 1093.29 3521.24 1107.08 3521.24 1122.69Z" fill="white"/>
<path d="M1677.17 2162.69H1568.75V2302.34H1301.37V2162.69H877.797V1988.13L1224.19 1486.5H1506.27L1198.46 1949.55H1309.64V1824.6H1568.75V1949.55H1677.17V2162.69Z" fill="#FF7C78"/>
<path d="M1715.76 1894.42C1715.76 1623.4 1870.12 1467.21 2086.04 1467.21C2301.97 1467.21 2456.33 1623.4 2456.33 1894.42C2456.33 2165.45 2301.97 2321.64 2086.04 2321.64C1870.12 2320.72 1715.76 2164.53 1715.76 1894.42ZM2178.84 1894.42C2178.84 1737.32 2139.33 1687.71 2085.12 1687.71C2031.83 1687.71 1991.41 1736.4 1991.41 1894.42C1991.41 2052.45 2030.91 2101.14 2085.12 2101.14C2139.33 2100.22 2178.84 2051.53 2178.84 1894.42Z" fill="#FF7C78"/>
<path d="M3314.5 2162.69H3206.08V2302.34H2938.71V2162.69H2515.13V1988.13L2861.53 1486.5H3143.6L2835.8 1949.55H2946.98V1824.6H3206.08V1949.55H3314.5V2162.69V2162.69Z" fill="#FF7C78"/>
<path d="M3945.73 2758.03V2769.06C3945.73 2822.34 3929.2 2871.04 3899.79 2910.54C3855.69 2971.18 3784.02 3010.69 3704.08 3010.69H531.402C450.546 3010.69 378.878 2971.18 335.694 2910.54C307.21 2871.04 289.753 2821.43 289.753 2769.06V2758.03H3945.73Z" fill="#282828"/>
<path d="M1707.49 2758.03V2760.79C1707.49 2780.08 1720.35 2795.7 1735.97 2795.7H2482.05C2497.67 2795.7 2510.54 2780.08 2510.54 2760.79V2758.03H1707.49Z" fill="#282828"/>
<path opacity="0.2" d="M3521.24 1122.69V1210.89H714.247V1122.69C714.247 1106.16 719.76 1089.62 728.948 1076.76C743.649 1056.54 767.539 1042.76 794.184 1042.76H3442.22C3468.87 1042.76 3492.76 1056.54 3507.46 1076.76C3515.73 1090.54 3521.24 1106.16 3521.24 1122.69Z" fill="#282828"/>
<path d="M2843.15 1153.92H1354.66C1350.99 1153.92 1347.31 1151.17 1347.31 1146.57V1116.26C1347.31 1112.58 1350.07 1108.91 1354.66 1108.91H2843.15C2846.83 1108.91 2850.5 1111.66 2850.5 1116.26V1146.57C2849.58 1150.25 2846.83 1153.92 2843.15 1153.92Z" fill="white"/>
<path d="M988.055 1131.89V1148.42C988.055 1153.02 982.542 1155.77 978.867 1153.94L964.166 1145.67L949.465 1137.4C945.789 1134.64 945.789 1129.13 949.465 1126.37L964.166 1118.1L978.867 1109.84C982.542 1107.08 988.055 1110.75 988.055 1115.35V1131.89Z" fill="#282828"/>
<path d="M1062.48 1131.89V1148.42C1062.48 1153.02 1067.99 1155.77 1071.67 1153.94L1086.37 1145.67L1101.07 1137.4C1104.74 1134.64 1104.74 1129.13 1101.07 1126.37L1086.37 1118.1L1071.67 1109.84C1067.99 1107.08 1062.48 1110.75 1062.48 1115.35V1131.89Z" fill="#282828"/>
<path opacity="0.2" d="M3506.54 1077.67H728.029C742.731 1057.46 766.62 1043.68 793.266 1043.68H3441.3C3468.87 1043.68 3492.76 1056.54 3506.54 1077.67Z" fill="#282828"/>
<path opacity="0.1" d="M2946.06 2567.86H1250.84C1217.76 2567.86 1191.11 2541.22 1191.11 2508.15C1191.11 2475.07 1217.76 2448.43 1250.84 2448.43H2946.98C2980.05 2448.43 3006.7 2475.07 3006.7 2508.15C3006.7 2541.22 2980.05 2567.86 2946.06 2567.86Z" fill="#282828"/>
<path d="M3177.6 2281.22C3164.74 2306.03 3151.87 2328.08 3139.93 2346.45C3048.97 2484.26 2980.97 2454.86 2945.14 2412.6C2932.28 2397.9 2923.09 2381.36 2916.66 2366.66C2905.63 2342.78 2901.95 2321.64 2901.04 2312.46L2917.58 2316.13C2937.79 2325.32 2970.87 2338.18 2995.67 2334.51C2998.43 2333.59 3002.11 2333.59 3004.86 2331.75C3026.91 2323.48 3057.24 2280.3 3077.45 2247.23C3091.23 2225.18 3099.5 2208.64 3099.5 2208.64L3177.6 2281.22Z" fill="#FFC0AD"/>
<path d="M3177.6 2281.22C3164.74 2306.02 3151.87 2328.07 3139.93 2346.45C3114.2 2317.97 3090.31 2276.62 3076.53 2248.14C3090.31 2226.09 3098.58 2209.56 3098.58 2209.56L3177.6 2281.22Z" fill="#FDA084"/>
<path d="M3014.05 2340.02C3014.05 2340.02 2995.67 2396.07 2915.74 2367.58C2904.71 2343.7 2901.04 2322.57 2900.12 2313.38L2916.66 2317.05C2936.87 2326.24 2969.95 2339.1 2994.76 2335.43L3014.05 2340.02Z" fill="#FDA084"/>
<path d="M3761.05 2483.34C3742.68 2589 3656.31 2511.82 3648.96 2429.14C3647.12 2410.76 3647.12 2391.47 3647.12 2373.09C3647.12 2355.64 3648.04 2339.1 3649.87 2324.4C3649.87 2321.64 3649.87 2318.89 3650.79 2316.13C3653.55 2280.3 3658.14 2254.58 3658.14 2254.58L3714.19 2185.67C3714.19 2185.67 3720.62 2204.97 3728.89 2235.28C3736.24 2262.85 3746.35 2299.59 3752.78 2338.18C3754.62 2350.13 3756.46 2361.15 3758.3 2373.09C3764.73 2411.68 3766.56 2451.19 3761.05 2483.34Z" fill="#FFC0AD"/>
<path d="M3729.81 2234.36C3713.27 2264.68 3685.71 2306.02 3649.88 2324.4C3649.88 2321.64 3649.88 2318.88 3650.79 2316.13C3653.55 2280.3 3658.14 2254.57 3658.14 2254.57L3714.19 2185.67C3714.19 2184.75 3720.62 2204.96 3729.81 2234.36Z" fill="#FDA084"/>
<path d="M3759.21 2372.17C3739 2384.11 3671.93 2378.6 3647.12 2373.09C3647.12 2352.87 3648.96 2333.58 3649.87 2316.12L3752.78 2337.26C3755.54 2348.28 3757.38 2360.22 3759.21 2372.17Z" fill="#FDA084"/>
<path d="M3166.58 2017.54C3166.58 2017.54 3084.8 2161.78 3071.94 2210.47C3071.94 2210.47 3127.99 2303.26 3178.52 2314.29L3196.9 2250.9C3195.98 2250.9 3197.82 2051.53 3166.58 2017.54Z" fill="#898989"/>
<path d="M3345.74 1944.03L3166.58 2018.45L3245.59 2632.17C3245.59 2632.17 3491.84 2667.08 3619.55 2632.17V2018.45L3444.98 1940.36L3345.74 1944.03Z" fill="#898989"/>
<path d="M3308.99 2278.47C3339.31 2309.7 3381.58 2339.1 3440.38 2356.56C3442.22 2357.48 3444.98 2355.64 3444.98 2352.88C3444.98 2351.05 3444.06 2349.21 3442.22 2349.21C3385.25 2332.67 3343.91 2304.19 3314.51 2273.87C3312.67 2272.03 3308.07 2272.95 3308.07 2275.71C3307.16 2276.63 3308.07 2277.55 3308.99 2278.47Z" fill="#5B5B5B"/>
<path d="M3309.91 2219.65C3309.91 2220.57 3309.91 2221.49 3310.83 2221.49C3312.67 2225.17 3315.43 2228.84 3317.26 2232.52C3331.05 2252.73 3358.61 2279.37 3405.47 2292.23H3406.39C3408.23 2292.23 3409.14 2291.32 3410.06 2289.48C3410.98 2287.64 3409.14 2285.8 3407.31 2284.88C3356.77 2271.1 3330.13 2240.79 3316.34 2217.82C3315.43 2215.06 3309.91 2215.98 3309.91 2219.65Z" fill="#5B5B5B"/>
<path d="M3316.34 2059.8C3316.34 2060.72 3316.34 2060.72 3316.34 2059.8C3316.34 2061.64 3318.18 2063.47 3320.94 2063.47C3364.12 2055.21 3397.2 2035.91 3419.25 2019.38C3450.49 1997.33 3466.11 1975.28 3467.03 1974.36C3467.95 1972.52 3467.95 1970.68 3466.11 1969.76C3464.27 1968.84 3462.44 1968.84 3461.52 1970.68C3460.6 1971.6 3409.14 2039.59 3319.1 2057.04C3318.18 2057.04 3316.34 2058.88 3316.34 2059.8Z" fill="#5B5B5B"/>
<path d="M3041.62 3022.65L3060.91 2923.42H2995.67L2980.05 3017.13C2979.14 3017.13 3004.86 3034.59 3041.62 3022.65Z" fill="#FFC0AD"/>
<path d="M2996.59 3021.73C2996.59 3021.73 2981.89 3002.44 2970.87 3003.36C2959.84 3004.28 2872.55 3075.02 2842.23 3081.45C2811.91 3087.88 2818.34 3109.93 2823.86 3120.96C2829.37 3131.98 3064.59 3113.61 3064.59 3113.61C3064.59 3113.61 3070.1 3043.78 3062.75 3022.65C3053.56 3001.52 3020.48 3026.33 2996.59 3021.73Z" fill="#5B5B5B"/>
<path d="M2947.9 3071.33C2948.81 3071.33 2949.73 3071.33 2951.57 3071.33C2953.41 3070.42 2954.33 3067.66 2953.41 3065.82C2953.41 3064.9 2943.3 3049.29 2931.36 3042.85C2914.82 3034.59 2901.96 3043.77 2901.04 3044.69C2899.2 3046.53 2899.2 3048.37 2900.12 3050.2C2901.96 3052.04 2903.79 3052.04 2905.63 3051.12C2905.63 3051.12 2914.82 3044.69 2926.76 3050.2C2936.87 3054.8 2945.14 3069.5 2945.14 3069.5C2946.06 3070.42 2946.98 3070.42 2947.9 3071.33Z" fill="white"/>
<path d="M2960.76 3058.47C2961.68 3058.47 2962.6 3058.47 2964.43 3058.47C2966.27 3057.55 2967.19 3054.79 2966.27 3052.96C2966.27 3052.04 2956.16 3036.42 2944.22 3029.99C2927.68 3021.72 2914.82 3030.91 2913.9 3031.83C2912.06 3033.66 2912.06 3035.5 2912.98 3037.34C2914.82 3039.18 2916.66 3039.18 2918.49 3038.26C2918.49 3038.26 2927.68 3031.83 2939.63 3037.34C2949.73 3041.93 2958 3056.63 2958 3056.63C2958.92 3057.55 2959.84 3058.47 2960.76 3058.47Z" fill="white"/>
<path d="M2931.36 3080.52C2932.28 3080.52 2933.19 3080.52 2935.03 3080.52C2936.87 3079.6 2937.79 3076.85 2936.87 3075.01C2936.87 3074.09 2926.76 3058.47 2914.82 3052.04C2898.28 3043.77 2885.42 3052.96 2884.5 3053.88C2882.66 3055.72 2882.66 3057.55 2883.58 3059.39C2885.42 3061.23 2887.25 3061.23 2889.09 3060.31C2889.09 3060.31 2898.28 3053.88 2910.22 3059.39C2920.33 3063.98 2928.6 3078.68 2928.6 3078.68C2929.52 3079.6 2930.44 3080.52 2931.36 3080.52Z" fill="white"/>
<path d="M3339.31 2570.63C3339.31 2570.63 3227.22 2291.33 3157.39 2302.36C3048.97 2319.81 2977.3 2651.48 2985.57 2961.09L3059.99 2965.68C3059.99 2965.68 3142.69 2673.53 3158.31 2597.27C3158.31 2597.27 3215.27 2795.72 3344.83 2768.16C3439.46 2747.94 3376.98 2649.64 3339.31 2570.63Z" fill="#FF7C78"/>
<path d="M3050.8 2952.82L3041.62 2950.98C3041.62 2950.07 3061.83 2841.65 3085.72 2731.41C3134.42 2507.24 3152.79 2497.13 3159.22 2493.45C3163.82 2490.7 3168.41 2491.62 3171.17 2492.54C3183.11 2498.05 3189.55 2523.77 3198.73 2563.28C3213.44 2627.59 3234.57 2714.87 3291.53 2751.62L3286.94 2758.97C3227.22 2720.38 3206.08 2630.35 3190.46 2565.12C3183.11 2533.88 3175.76 2503.56 3168.41 2500.8C3167.49 2500.8 3166.58 2499.89 3164.74 2501.72C3138.09 2516.42 3082.04 2779.18 3050.8 2952.82Z" fill="#D84E5A"/>
<path d="M2978.22 2938.12L3069.18 2946.39H3071.02L3065.51 2976.71L2976.38 2970.27L2978.22 2938.12Z" fill="#D84E5A"/>
<path d="M3310.83 2769.07C3310.83 2769.07 3441.3 2793.87 3614.96 2762.64C3600.26 2690.97 3568.1 2634.93 3515.73 2585.32L3282.35 2601.86C3266.73 2657.9 3277.75 2713.02 3310.83 2769.07Z" fill="#FF7C78"/>
<path d="M3273.16 3000.59C3273.16 3000.59 3241.92 2994.16 3233.65 2994.16C3225.38 2995.07 3171.17 3060.31 3152.79 3064.9C3118.8 3073.17 3120.63 3127.37 3141.77 3129.21C3203.33 3133.8 3306.24 3103.49 3306.24 3103.49C3306.24 3103.49 3312.67 3033.66 3307.15 3012.53C3302.56 2991.4 3290.62 3006.1 3273.16 3000.59Z" fill="#5B5B5B"/>
<path d="M3291.53 3005.18L3314.5 2916.06H3249.27L3234.57 3001.51C3233.65 3002.43 3255.7 3017.13 3291.53 3005.18Z" fill="#FFC0AD"/>
<path d="M3225.38 3062.15C3226.3 3062.15 3227.22 3062.15 3229.06 3061.23C3230.89 3059.39 3230.89 3057.55 3229.97 3055.72C3229.06 3054.8 3218.03 3040.1 3205.17 3035.5C3187.71 3029.07 3175.76 3040.1 3175.76 3040.1C3173.93 3041.94 3173.93 3044.69 3175.76 3045.61C3177.6 3047.45 3180.36 3047.45 3181.28 3045.61C3181.28 3045.61 3189.55 3038.26 3202.41 3042.85C3213.44 3046.53 3222.62 3060.31 3222.62 3060.31C3223.54 3061.23 3224.46 3061.23 3225.38 3062.15Z" fill="white"/>
<path d="M3236.41 3048.37C3237.32 3048.37 3238.24 3048.37 3240.08 3047.45C3241.92 3045.61 3241.92 3043.77 3241 3041.94C3240.08 3041.02 3229.06 3026.32 3216.19 3021.72C3198.73 3015.29 3186.79 3026.32 3186.79 3026.32C3184.95 3028.15 3184.95 3030.91 3186.79 3031.83C3188.63 3033.67 3191.38 3033.67 3192.3 3031.83C3192.3 3031.83 3200.57 3024.48 3213.44 3029.07C3224.46 3032.75 3233.65 3046.53 3233.65 3046.53C3234.57 3047.45 3235.49 3048.37 3236.41 3048.37Z" fill="white"/>
<path d="M3209.76 3073.17C3210.68 3073.17 3211.6 3073.17 3213.44 3072.25C3215.27 3070.41 3215.27 3068.57 3214.35 3066.73C3213.44 3065.82 3202.41 3051.12 3189.55 3046.52C3172.09 3040.09 3160.14 3051.12 3160.14 3051.12C3158.31 3052.95 3158.31 3055.71 3160.14 3056.63C3161.98 3058.47 3164.74 3058.47 3165.66 3056.63C3165.66 3056.63 3173.93 3049.28 3186.79 3053.87C3197.82 3057.55 3207 3071.33 3207 3071.33C3207.92 3072.25 3208.84 3073.17 3209.76 3073.17Z" fill="white"/>
<path d="M3598.42 2768.15C3581.88 2771.83 3566.26 2771.83 3552.48 2768.15C3547.89 2767.23 3543.29 2766.31 3538.7 2764.48C3451.41 2733.24 3411.9 2597.27 3411.9 2597.27C3397.2 2673.52 3310.83 2965.68 3310.83 2965.68L3297.05 2963.84L3287.86 2962.92L3237.33 2956.49C3227.22 2656.98 3303.48 2319.81 3410.98 2303.27C3480.81 2292.25 3592.91 2571.54 3592.91 2571.54C3631.5 2649.63 3693.98 2747.94 3598.42 2768.15Z" fill="#FF7C78"/>
<path d="M3552.48 2768.15C3547.89 2767.23 3543.29 2766.31 3538.7 2764.48C3506.54 2713.03 3490 2641.37 3477.14 2583.49C3466.11 2537.55 3456.92 2494.37 3443.14 2487.02C3441.3 2486.1 3439.46 2486.1 3436.71 2486.1C3425.68 2489.78 3399.04 2526.52 3348.5 2734.16C3324.61 2833.38 3304.4 2931.69 3297.97 2962.92C3297.05 2969.35 3296.13 2973.03 3296.13 2973.03L3286.94 2971.19C3286.94 2971.19 3287.86 2967.52 3288.78 2962C3295.21 2931.69 3315.42 2832.46 3339.31 2732.32C3399.04 2488.86 3424.76 2480.59 3433.95 2477.83C3438.55 2475.99 3443.14 2476.91 3447.73 2478.75C3464.27 2487.94 3473.46 2527.44 3486.32 2581.65C3500.11 2642.29 3517.56 2718.54 3552.48 2768.15Z" fill="#D84E5A"/>
<path d="M3231.81 2934.44L3321.86 2950.98H3323.69L3315.42 2980.38L3227.22 2965.68L3231.81 2934.44Z" fill="#D84E5A"/>
<path d="M3619.55 2017.54L3735.32 2185.67C3735.32 2185.67 3683.87 2283.05 3633.34 2293.16C3633.34 2293.16 3580.96 2201.28 3574.53 2154.43C3569.02 2107.57 3601.18 2022.13 3619.55 2017.54Z" fill="#898989"/>
<path d="M3286.02 1757.54C3286.02 1822.77 3326.45 1867.79 3391.69 1867.79C3456.92 1867.79 3502.86 1819.1 3502.86 1753.87C3502.86 1688.64 3464.27 1639.03 3399.04 1639.03C3320.02 1639.03 3286.02 1692.31 3286.02 1757.54Z" fill="#282828"/>
<path d="M3290.62 1720.79C3290.62 1720.79 3241.92 1673.02 3260.3 1650.05C3278.67 1627.08 3302.56 1649.13 3309.91 1627.08C3317.26 1605.03 3320.02 1577.47 3349.42 1588.49C3378.82 1599.52 3380.66 1618.81 3408.23 1602.27C3436.71 1585.74 3430.28 1613.3 3455.09 1626.16C3479.89 1638.1 3497.35 1636.27 3492.76 1660.15C3489.08 1684.04 3516.65 1688.63 3504.7 1715.28C3493.68 1741.92 3479.89 1728.14 3479.89 1728.14L3290.62 1720.79Z" fill="#282828"/>
<path d="M3300.72 1785.1C3300.72 1785.1 3282.35 1761.21 3269.48 1780.5C3255.7 1800.72 3275 1859.51 3308.07 1844.81L3300.72 1785.1Z" fill="#FDA084"/>
<path d="M3300.72 1827.35C3299.8 1827.35 3297.97 1826.43 3297.97 1825.51C3292.45 1807.14 3274.08 1799.79 3274.08 1799.79C3272.24 1798.87 3272.24 1797.95 3272.24 1796.11C3273.16 1794.28 3274.08 1794.28 3275.91 1794.28C3276.83 1794.28 3297.97 1802.55 3303.48 1823.68C3304.4 1825.51 3303.48 1827.35 3300.72 1827.35C3300.72 1827.35 3301.64 1827.35 3300.72 1827.35Z" fill="#FF7972"/>
<path d="M3281.43 1818.17C3280.51 1818.17 3280.51 1818.17 3279.59 1818.17C3278.67 1817.25 3277.75 1815.41 3278.67 1814.5C3278.67 1814.5 3282.35 1808.98 3288.78 1806.23C3290.62 1805.31 3291.54 1806.23 3292.45 1808.07C3293.37 1809.9 3292.46 1810.82 3290.62 1811.74C3285.1 1814.5 3282.35 1818.17 3282.35 1818.17C3283.27 1818.17 3282.35 1818.17 3281.43 1818.17Z" fill="#FF7972"/>
<path d="M3488.16 1785.1C3488.16 1785.1 3506.54 1761.21 3519.4 1780.5C3533.18 1800.72 3513.89 1859.51 3480.81 1844.81L3488.16 1785.1Z" fill="#FDA084"/>
<path d="M3488.16 1827.35C3489.08 1827.35 3490.92 1826.43 3490.92 1825.51C3496.43 1807.14 3514.81 1799.79 3514.81 1799.79C3516.64 1798.87 3516.64 1797.95 3516.64 1796.11C3515.73 1794.28 3514.81 1794.28 3512.97 1794.28C3512.05 1794.28 3490.92 1802.55 3485.41 1823.68C3485.41 1825.51 3486.32 1827.35 3488.16 1827.35Z" fill="#FF7972"/>
<path d="M3507.46 1818.17C3508.38 1818.17 3508.38 1818.17 3509.29 1818.17C3510.21 1817.25 3511.13 1815.41 3510.21 1814.5C3510.21 1814.5 3506.54 1808.98 3500.11 1806.23C3498.27 1805.31 3497.35 1806.23 3496.43 1808.07C3495.51 1809.9 3496.43 1810.82 3498.27 1811.74C3503.78 1814.5 3506.54 1818.17 3506.54 1818.17C3505.62 1818.17 3506.54 1818.17 3507.46 1818.17Z" fill="#FF7972"/>
<path d="M3439.47 1896.27V1955.07C3439.47 1955.07 3422.01 1985.39 3398.12 1987.22C3374.23 1989.06 3353.1 1961.5 3353.1 1961.5V1900.86L3439.47 1896.27Z" fill="#FFC0AD"/>
<path d="M3439.47 1896.27V1921.99C3423.85 1939.45 3395.36 1944.04 3353.1 1937.61V1899.94L3439.47 1896.27Z" fill="#FDA084"/>
<path d="M3291.54 1783.27C3292.45 1796.13 3294.29 1808.99 3296.13 1821.85C3304.4 1865.04 3321.86 1908.22 3360.45 1921.08C3446.82 1952.32 3478.06 1877.9 3490 1834.72C3490.92 1830.12 3492.76 1824.61 3493.68 1819.1C3495.51 1808.99 3497.35 1797.05 3498.27 1786.02C3500.11 1772.24 3501.03 1757.54 3501.03 1745.6C3501.94 1718.96 3486.32 1695.07 3461.52 1685.88C3425.68 1672.1 3372.39 1661.08 3320.94 1690.48C3301.64 1701.5 3290.62 1720.79 3289.7 1742.84C3289.7 1753.87 3290.62 1767.65 3291.54 1783.27Z" fill="#FFC0AD"/>
<path d="M3291.53 1783.26C3292.45 1796.12 3294.29 1808.98 3296.13 1821.85C3304.4 1865.03 3321.86 1908.21 3360.45 1921.07C3446.82 1952.31 3478.06 1877.89 3490 1834.71C3490.92 1830.12 3492.76 1824.6 3493.67 1819.09C3495.51 1808.98 3497.35 1797.04 3498.27 1786.02H3485.41C3482.65 1794.28 3468.87 1842.98 3464.27 1850.33C3454.17 1826.44 3404.55 1842.06 3404.55 1842.06C3401.79 1842.98 3398.12 1843.9 3395.36 1843.9C3391.69 1843.9 3388.93 1842.98 3386.17 1842.06C3386.17 1842.06 3336.56 1825.52 3326.45 1848.49C3321.86 1841.14 3305.32 1791.53 3302.56 1786.02L3291.53 1783.26ZM3394.44 1853.08C3451.41 1845.73 3442.22 1876.05 3442.22 1876.05C3435.79 1881.56 3430.28 1886.16 3426.6 1888C3414.66 1894.43 3401.79 1897.18 3393.52 1897.18C3385.25 1897.18 3382.5 1899.02 3360.45 1887.08C3356.77 1885.24 3353.1 1881.56 3348.5 1877.89C3347.58 1871.46 3338.39 1842.98 3394.44 1853.08Z" fill="#282828"/>
<path d="M3350.34 1804.39C3354.4 1804.39 3357.69 1799.46 3357.69 1793.37C3357.69 1787.28 3354.4 1782.34 3350.34 1782.34C3346.28 1782.34 3342.99 1787.28 3342.99 1793.37C3342.99 1799.46 3346.28 1804.39 3350.34 1804.39Z" fill="#282828"/>
<path d="M3435.79 1803.48C3439.85 1803.48 3443.14 1798.54 3443.14 1792.45C3443.14 1786.36 3439.85 1781.43 3435.79 1781.43C3431.73 1781.43 3428.44 1786.36 3428.44 1792.45C3428.44 1798.54 3431.73 1803.48 3435.79 1803.48Z" fill="#282828"/>
<path d="M3319.1 1764.89C3319.1 1764.89 3342.99 1746.51 3365.96 1750.19L3366.88 1762.13C3366.88 1762.13 3335.64 1767.65 3322.77 1778.67C3320.02 1774.99 3319.1 1770.4 3319.1 1764.89Z" fill="#282828"/>
<path d="M3467.03 1764.89C3467.03 1764.89 3443.14 1746.51 3420.17 1750.19L3419.25 1762.13C3419.25 1762.13 3450.49 1767.65 3463.35 1778.67C3466.11 1774.99 3467.03 1770.4 3467.03 1764.89Z" fill="#282828"/>
<path d="M3395.36 1837.47C3399.96 1837.47 3404.55 1835.63 3405.47 1835.63C3407.31 1834.71 3407.31 1833.79 3407.31 1831.96C3406.39 1830.12 3405.47 1830.12 3403.63 1830.12C3400.87 1831.04 3395.36 1832.87 3392.61 1831.04C3391.69 1831.04 3391.69 1830.12 3391.69 1828.28C3390.77 1818.17 3393.52 1786.02 3393.52 1785.1C3393.52 1783.26 3392.61 1782.34 3390.77 1782.34C3388.93 1782.34 3388.01 1783.26 3388.01 1785.1C3388.01 1786.02 3385.25 1818.17 3386.17 1829.2C3386.17 1832.87 3388.93 1834.71 3389.85 1835.63C3391.69 1836.55 3393.52 1837.47 3395.36 1837.47Z" fill="#FDA084"/>
<path d="M3391.69 1857.67C3370.55 1857.67 3369.63 1888.91 3390.77 1889.83C3391.69 1889.83 3392.61 1889.83 3393.52 1889.83C3394.44 1889.83 3395.36 1889.83 3396.28 1889.83C3417.41 1888.91 3416.49 1857.67 3395.36 1857.67H3391.69Z" fill="white"/>
<path d="M3498.27 1786.03H3485.41C3487.24 1773.16 3489.08 1751.12 3478.06 1747.44C3444.98 1737.33 3488.16 1714.37 3472.54 1702.42C3457.84 1690.48 3420.17 1695.99 3394.44 1695.07C3368.72 1694.15 3326.45 1694.15 3316.34 1696.91C3306.24 1699.67 3311.75 1716.2 3315.42 1729.07C3319.1 1741.93 3302.56 1756.63 3300.72 1770.41C3299.8 1774.08 3299.8 1779.6 3300.72 1786.03H3290.62C3289.7 1769.49 3288.78 1754.79 3289.7 1741.93C3289.7 1719.88 3301.64 1700.58 3320.94 1689.56C3372.39 1660.16 3425.68 1671.19 3461.52 1684.97C3486.33 1694.15 3501.95 1718.96 3501.03 1744.68C3501.03 1757.55 3500.11 1772.25 3498.27 1786.03Z" fill="#282828"/>
<path d="M4075.29 2762.64C4059.67 2824.2 4015.57 2870.13 3948.49 2896.78C3931.03 2904.13 3913.58 2908.72 3898.88 2911.48C3899.79 2910.56 3899.79 2909.64 3900.71 2909.64C3910.82 2894.94 3920.01 2879.32 3927.36 2862.78C3971.46 2846.25 4022 2815.01 4038.54 2752.53C4054.16 2692.82 4029.35 2602.78 3975.14 2523.77C3932.87 2461.3 3835.48 2352.89 3666.41 2332.67C3518.48 2314.3 3422.93 2337.27 3338.4 2356.56C3266.73 2373.1 3198.73 2389.63 3115.12 2374.93C3054.48 2363.91 3007.62 2348.29 2966.27 2335.43C2890.01 2310.62 2839.48 2294.09 2760.46 2326.24C2626.31 2381.37 2565.67 2610.13 2565.67 2611.97L2528 2601.86C2530.75 2591.76 2593.23 2351.97 2746.68 2289.49C2839.48 2250.91 2901.96 2272.04 2980.06 2297.76C3020.48 2310.62 3065.51 2326.24 3123.39 2336.35C3198.73 2349.21 3260.3 2335.43 3331.04 2318.89C3419.25 2298.68 3518.48 2274.79 3672.85 2294.09C3745.43 2303.27 3812.51 2328.08 3873.15 2367.59C3925.52 2402.5 3973.3 2448.43 4009.13 2501.72C4067.02 2591.76 4093.66 2691.9 4075.29 2762.64Z" fill="#5B5B5B"/>
<path d="M2193.55 2973.95L2280.83 2697.41C2318.51 2579.81 2444.38 2514.58 2561.99 2551.33C2679.6 2589 2744.84 2714.87 2708.09 2832.47L2620.8 3109C2442.55 3052.96 2370.88 3029.99 2193.55 2973.95Z" fill="#FF7C78"/>
<path d="M2880.82 2317.97C2880.82 2317.97 2888.17 2300.51 2903.79 2276.63C2911.14 2264.68 2929.52 2259.17 2931.36 2272.95C2933.2 2283.97 2924.93 2293.16 2923.09 2304.19C2923.09 2304.19 2926.76 2297.76 2935.95 2281.22C2944.22 2266.52 2955.25 2267.44 2956.17 2278.46C2958 2288.57 2954.33 2288.57 2951.57 2296.84C2947.9 2307.86 2943.3 2320.72 2943.3 2320.72C2943.3 2320.72 2946.98 2305.11 2959.84 2287.65C2965.35 2279.38 2971.79 2270.19 2980.97 2283.06C2985.57 2289.49 2979.14 2306.02 2974.54 2324.4C2974.54 2324.4 2983.73 2299.59 2996.59 2294.08C3006.7 2289.49 3011.29 2293.16 3007.62 2306.94C3003.03 2324.4 2999.35 2328.99 2995.67 2339.1C2992 2349.2 2978.22 2363.9 2968.11 2361.15C2957.08 2357.47 2955.25 2350.12 2947.9 2350.12C2940.55 2349.2 2928.6 2350.12 2924.01 2345.53C2919.41 2340.94 2913.9 2340.02 2905.63 2340.02C2896.44 2339.1 2879.9 2328.99 2880.82 2317.97Z" fill="#FFC0AD"/>
<path d="M3638.85 2334.51C3638.85 2334.51 3643.44 2316.13 3655.39 2290.41C3660.9 2277.55 3675.6 2268.36 3680.2 2282.14C3683.87 2293.16 3679.28 2303.27 3679.28 2314.3C3679.28 2314.3 3682.03 2307.86 3688.46 2290.41C3693.98 2274.79 3705 2273.87 3708.68 2284.9C3711.44 2295 3708.68 2295 3707.76 2303.27C3705.92 2314.3 3703.17 2328.08 3703.17 2328.08C3703.17 2328.08 3705 2312.46 3715.11 2293.16C3719.7 2283.98 3724.3 2274.79 3735.32 2285.81C3740.84 2291.33 3737.16 2308.78 3735.32 2328.08C3735.32 2328.08 3737.16 2306.03 3749.11 2297.76C3758.3 2291.33 3766.56 2291.33 3765.65 2306.03C3763.81 2324.4 3761.05 2329 3759.21 2340.02C3757.38 2351.04 3746.35 2367.58 3735.32 2365.74C3724.3 2363.91 3720.62 2356.56 3713.27 2357.48C3705.92 2358.39 3694.9 2360.23 3689.38 2356.56C3683.87 2352.88 3678.36 2352.88 3670.09 2353.8C3658.14 2353.8 3639.77 2345.53 3638.85 2334.51Z" fill="#FFC0AD"/>
<path d="M2149.44 3241.28C2149.44 3248.63 2146.69 3255.98 2141.17 3260.58C2136.58 3265.17 2129.23 3268.85 2121.88 3268.85H2012.54V3213.72H2121.88C2137.5 3213.72 2149.44 3225.67 2149.44 3241.28Z" fill="#5B5B5B"/>
<path d="M2149.44 3436.98C2149.44 3444.33 2146.69 3451.68 2141.17 3456.28C2136.58 3460.87 2129.23 3464.54 2121.88 3464.54H2012.54V3409.42H2121.88C2137.5 3409.42 2149.44 3422.28 2149.44 3436.98Z" fill="#5B5B5B"/>
<path d="M2062.15 3213.72H2012.54V3268.85H2062.15V3213.72Z" fill="#282828"/>
<path d="M2062.15 3409.42H2012.54V3464.54H2062.15V3409.42Z" fill="#282828"/>
<path d="M1577.02 3306.52L1575.18 3349.7C1120.37 3335 766.62 3301.01 525.889 3252.31C319.155 3210.05 189.601 3154.93 129.878 3086.02C99.5572 3050.19 86.6937 3009.77 92.2067 2964.75C101.395 2889.41 168.469 2834.29 290.672 2799.38C292.509 2814.08 295.266 2828.78 299.86 2842.56C217.166 2866.44 143.661 2905.95 135.391 2970.26C131.716 3002.42 140.904 3030.9 162.956 3057.54C215.328 3119.1 340.288 3169.63 534.159 3210.05C773.052 3257.82 1124.04 3290.9 1577.02 3306.52Z" fill="#5B5B5B"/>
<path d="M2012.54 3562.85H1722.19C1598.15 3562.85 1498 3462.71 1498 3338.68C1498 3214.65 1598.15 3114.51 1722.19 3114.51H2012.54C2012.54 3301.01 2012.54 3376.35 2012.54 3562.85Z" fill="#FF7C78"/>
<path d="M4004.54 1585.74V1734.58C4004.54 1753.87 3988.92 1770.41 3968.71 1770.41H3698.57L3616.8 1799.81C3608.53 1802.57 3600.26 1794.3 3603.93 1786.03L3635.17 1706.1V1585.74C3635.17 1566.45 3650.79 1549.91 3671.01 1549.91H3968.71C3988.92 1549.91 4004.54 1566.45 4004.54 1585.74Z" fill="#FF7C78"/>
<path d="M3744.51 1689.56C3758.72 1689.56 3770.24 1678.04 3770.24 1663.83C3770.24 1649.63 3758.72 1638.11 3744.51 1638.11C3730.3 1638.11 3718.79 1649.63 3718.79 1663.83C3718.79 1678.04 3730.3 1689.56 3744.51 1689.56Z" fill="#FF7C78"/>
<path d="M3826.29 1689.56C3840.5 1689.56 3852.02 1678.04 3852.02 1663.83C3852.02 1649.63 3840.5 1638.11 3826.29 1638.11C3812.08 1638.11 3800.56 1649.63 3800.56 1663.83C3800.56 1678.04 3812.08 1689.56 3826.29 1689.56Z" fill="#FF7C78"/>
<path d="M3907.14 1689.56C3921.35 1689.56 3932.87 1678.04 3932.87 1663.83C3932.87 1649.63 3921.35 1638.11 3907.14 1638.11C3892.94 1638.11 3881.42 1649.63 3881.42 1663.83C3881.42 1678.04 3892.94 1689.56 3907.14 1689.56Z" fill="#FF7C78"/>
<path d="M2642.85 681.715C2642.85 648.64 2670.41 621.078 2703.49 621.078C2736.57 621.078 2764.13 648.64 2764.13 681.715C2764.13 714.789 2736.57 742.351 2703.49 742.351C2670.41 742.351 2642.85 714.789 2642.85 681.715ZM2661.23 681.715C2661.23 704.683 2679.6 723.058 2702.57 723.058C2725.54 723.058 2743.92 704.683 2743.92 681.715C2743.92 658.746 2725.54 640.372 2702.57 640.372C2680.52 640.372 2661.23 658.746 2661.23 681.715Z" fill="#FF7C78"/>
<path d="M2439.79 421.707C2439.79 388.632 2467.36 361.07 2500.43 361.07C2533.51 361.07 2561.07 388.632 2561.07 421.707C2561.07 454.781 2533.51 482.343 2500.43 482.343C2466.44 482.343 2439.79 454.781 2439.79 421.707ZM2458.17 421.707C2458.17 444.675 2476.54 463.05 2499.51 463.05C2522.48 463.05 2540.86 444.675 2540.86 421.707C2540.86 398.738 2522.48 380.364 2499.51 380.364C2477.46 379.445 2458.17 398.738 2458.17 421.707Z" fill="#FF7C78"/>
<path d="M2458.17 712.023C2463.68 712.023 2467.35 707.43 2467.35 702.836V660.574C2467.35 655.062 2462.76 651.387 2458.17 651.387C2452.65 651.387 2448.98 655.98 2448.98 660.574V702.836C2448.98 708.348 2453.57 712.023 2458.17 712.023Z" fill="#898989"/>
<path d="M2458.17 785.521C2463.68 785.521 2467.35 780.928 2467.35 776.334V734.072C2467.35 728.56 2462.76 724.885 2458.17 724.885C2452.65 724.885 2448.98 729.478 2448.98 734.072V776.334C2448.98 781.846 2453.57 785.521 2458.17 785.521Z" fill="#898989"/>
<path d="M2399.36 727.648H2437.03C2442.55 727.648 2446.22 723.054 2446.22 718.461C2446.22 712.948 2441.63 709.273 2437.03 709.273H2399.36C2393.85 709.273 2390.17 713.867 2390.17 718.461C2390.17 723.973 2393.85 727.648 2399.36 727.648Z" fill="#898989"/>
<path d="M2479.3 727.648H2516.97C2522.48 727.648 2526.16 723.054 2526.16 718.461C2526.16 712.948 2521.56 709.273 2516.97 709.273H2479.3C2473.79 709.273 2470.11 713.867 2470.11 718.461C2470.11 723.973 2474.71 727.648 2479.3 727.648Z" fill="#898989"/>
<path d="M2714.52 432.724C2720.03 432.724 2723.71 428.131 2723.71 423.537V381.275C2723.71 375.763 2719.11 372.088 2714.52 372.088C2709 372.088 2705.33 376.682 2705.33 381.275V422.618C2705.33 428.131 2709.92 432.724 2714.52 432.724Z" fill="#5B5B5B"/>
<path d="M2714.52 506.222C2720.03 506.222 2723.71 501.629 2723.71 497.035V454.773C2723.71 449.261 2719.11 445.586 2714.52 445.586C2709 445.586 2705.33 450.18 2705.33 454.773V496.116C2705.33 501.629 2709.92 506.222 2714.52 506.222Z" fill="#5B5B5B"/>
<path d="M2655.71 448.349H2693.38C2698.9 448.349 2702.57 443.756 2702.57 439.162C2702.57 433.65 2697.98 429.975 2693.38 429.975H2655.71C2650.2 429.975 2646.52 434.568 2646.52 439.162C2646.52 443.756 2651.12 448.349 2655.71 448.349Z" fill="#5B5B5B"/>
<path d="M2736.57 448.349H2774.24C2779.75 448.349 2783.43 443.756 2783.43 439.162C2783.43 433.65 2778.83 429.975 2774.24 429.975H2736.57C2731.06 429.975 2727.38 434.568 2727.38 439.162C2726.46 443.756 2731.06 448.349 2736.57 448.349Z" fill="#5B5B5B"/>
<path d="M886.985 265.521C886.985 232.447 914.55 204.885 947.627 204.885C980.705 204.885 1008.27 232.447 1008.27 265.521C1008.27 298.596 980.705 326.158 947.627 326.158C913.631 326.158 886.985 299.514 886.985 265.521ZM905.361 265.521C905.361 288.49 923.738 306.864 946.708 306.864C969.679 306.864 988.055 288.49 988.055 265.521C988.055 242.553 969.679 224.178 946.708 224.178C924.657 224.178 905.361 242.553 905.361 265.521Z" fill="#FF7C78"/>
<path d="M653.605 379.447C653.605 346.373 681.17 318.811 714.247 318.811C747.325 318.811 774.889 346.373 774.889 379.447C774.889 412.521 747.325 440.083 714.247 440.083C680.251 441.002 653.605 413.44 653.605 379.447ZM671.982 379.447C671.982 402.415 690.358 420.79 713.328 420.79C736.299 420.79 754.675 402.415 754.675 379.447C754.675 356.479 736.299 338.104 713.328 338.104C691.277 338.104 671.982 356.479 671.982 379.447Z" fill="#898989"/>
<path d="M618.69 542.972C624.203 542.972 627.878 538.379 627.878 533.785V491.523C627.878 486.011 623.284 482.336 618.69 482.336C613.177 482.336 609.502 486.93 609.502 491.523V533.785C608.583 539.297 613.177 542.972 618.69 542.972Z" fill="#FF7C78"/>
<path d="M618.69 616.47C624.203 616.47 627.878 611.877 627.878 607.283V565.021C627.878 559.509 623.284 555.834 618.69 555.834C613.177 555.834 609.502 560.428 609.502 565.021V607.283C608.583 612.796 613.177 616.47 618.69 616.47Z" fill="#FF7C78"/>
<path d="M558.967 559.513H596.639C602.152 559.513 605.827 554.92 605.827 550.326C605.827 544.814 601.233 541.139 596.639 541.139H558.967C553.454 541.139 549.779 545.732 549.779 550.326C549.779 554.92 554.373 559.513 558.967 559.513Z" fill="#FF7C78"/>
<path d="M639.823 559.513H677.494C683.007 559.513 686.683 554.92 686.683 550.326C686.683 544.814 682.089 541.139 677.494 541.139H639.823C634.31 541.139 630.635 545.732 630.635 550.326C629.716 554.92 634.31 559.513 639.823 559.513Z" fill="#FF7C78"/>
<path d="M788.672 150.679C794.185 150.679 797.86 146.086 797.86 141.492V99.2303C797.86 93.7179 793.266 90.043 788.672 90.043C783.159 90.043 779.484 94.6366 779.484 99.2303V141.492C779.484 146.086 784.078 150.679 788.672 150.679Z" fill="#5B5B5B"/>
<path d="M788.672 224.177C794.185 224.177 797.86 219.584 797.86 214.99V172.728C797.86 167.216 793.266 163.541 788.672 163.541C783.159 163.541 779.484 168.135 779.484 172.728V214.99C779.484 219.584 784.078 224.177 788.672 224.177Z" fill="#5B5B5B"/>
<path d="M729.867 166.304H767.539C773.052 166.304 776.727 161.711 776.727 157.117C776.727 151.605 772.133 147.93 767.539 147.93H729.867C724.354 147.93 720.679 152.523 720.679 157.117C720.679 161.711 724.354 166.304 729.867 166.304Z" fill="#5B5B5B"/>
<path d="M810.724 166.304H848.395C853.908 166.304 857.583 161.711 857.583 157.117C857.583 151.605 852.989 147.93 848.395 147.93H810.724C805.211 147.93 801.535 152.523 801.535 157.117C800.617 161.711 805.211 166.304 810.724 166.304Z" fill="#5B5B5B"/>
</g>
<defs>
<filter id="filter0_d_93:2" x="0" y="0" width="4241" height="3637" filterUnits="userSpaceOnUse" color-interpolation-filters="sRGB">
<feFlood flood-opacity="0" result="BackgroundImageFix"/>
<feColorMatrix in="SourceAlpha" type="matrix" values="0 0 0 0 0 0 0 0 0 0 0 0 0 0 0 0 0 0 127 0" result="hardAlpha"/>
<feOffset dy="4"/>
<feGaussianBlur stdDeviation="2"/>
<feComposite in2="hardAlpha" operator="out"/>
<feColorMatrix type="matrix" values="0 0 0 0 0 0 0 0 0 0 0 0 0 0 0 0 0 0 0.25 0"/>
<feBlend mode="normal" in2="BackgroundImageFix" result="effect1_dropShadow_93:2"/>
<feBlend mode="normal" in="SourceGraphic" in2="effect1_dropShadow_93:2" result="shape"/>
</filter>
<clipPath id="clip0_93:2">
<rect width="4233" height="3629" fill="white" transform="translate(4)"/>
</clipPath>
</defs>
</svg>
