<svg id="Layer_1" data-name="Layer 1" xmlns="http://www.w3.org/2000/svg" viewBox="0 0 180.56 50.65"><path d="M66.22,13.59c4-2.31,5.43-3.78,5.64-6.42V5.68C71.51,2.39,68.71,0,64.41-.14H63.22C58.5.09,55.6,3,55.3,7.06h5c.29-1.89,1.12-3.28,3.41-3.28S66.79,5,66.79,6.42c0,1.68-.93,2.26-4.4,4.42-5.37,3.36-7,5.22-7.08,9.15v.12c0,.44,0,.87,0,1.3H71.86v-4H61.44C62.06,16.22,63.71,15,66.22,13.59ZM55.29,24.51v26.3H71.87V24.51Z"/><path d="M61.44,17.37H71.86v4H55.32c0-.43,0-.86,0-1.3V20c0-3.93,1.71-5.79,7.08-9.15,3.47-2.16,4.4-2.74,4.4-4.42,0-1.43-.76-2.64-3.12-2.64s-3.12,1.39-3.41,3.28h-5c.3-4.09,3.2-7,7.92-7.2l.62,0a5.43,5.43,0,0,1,.57,0c4.3.18,7.1,2.53,7.45,5.82V7.17c-.21,2.64-1.67,4.11-5.64,6.42C63.71,15,62.06,16.22,61.44,17.37Z"/><path d="M0,50.81V-.14h19.3C30.57,18.11,34.38,24.73,37.66,31.29h.28c-.46-4.79-.44-14-.44-22.44v-9H52.41v51H34.18c-4-7.08-16.49-28.77-19.52-35h-.25c.49,5.82.52,12.58.52,22.58V50.81Z"/><path d="M74.75-.14H103.4c12.25,0,20.78,6.1,20.78,16.61,0,10.83-8,17.05-20.71,17.05H91.24V50.81H74.75ZM91.24,22.32h9.58c4.47,0,7.06-1.81,7.06-5.71,0-3.26-2-5.6-7.06-5.6H91.24Z"/><path d="M127.06-.14h25.81c18.38,0,27.7,11.25,27.7,24.66,0,15.73-11.51,26.29-27.86,26.29H127.06Zm16.58,39.49h7.15c8.2,0,12.3-4.94,12.3-14.45,0-7.81-3.25-13.54-12.28-13.64h-7.17Z"/></svg>